HIERARCHY
ROOT hip
{
  OFFSET 0 0 0
  CHANNELS 6 Xposition Yposition Zposition Zrotation Yrotation Xrotation
  JOINT abdomen
  {
    OFFSET 0 20.6881 -0.73152
    CHANNELS 3 Zrotation Xrotation Yrotation
    JOINT chest
    {
      OFFSET 0 11.7043 -0.48768
      CHANNELS 3 Zrotation Xrotation Yrotation
      JOINT neck
      {
        OFFSET 0 22.1894 -2.19456
        CHANNELS 3 Zrotation Xrotation Yrotation
        JOINT head
        {
          OFFSET -0.24384 7.07133 1.2192
          CHANNELS 3 Zrotation Xrotation Yrotation
          JOINT leftEye
          {
            OFFSET 4.14528 8.04674 8.04672
            CHANNELS 3 Zrotation Xrotation Yrotation
            End Site
            {
              OFFSET 1 0 0
            }
          }
          JOINT rightEye
          {
            OFFSET -3.6576 8.04674 8.04672
            CHANNELS 3 Zrotation Xrotation Yrotation
            End Site
            {
              OFFSET 1 0 0
            }
          }
        }
      }
      JOINT rCollar
      {
        OFFSET -2.68224 19.2634 -4.8768
        CHANNELS 3 Zrotation Xrotation Yrotation
        JOINT rShldr
        {
          OFFSET -8.77824 -1.95073 1.46304
          CHANNELS 3 Zrotation Xrotation Yrotation
          JOINT rForeArm
          {
            OFFSET -28.1742 -1.7115 0.48768
            CHANNELS 3 Zrotation Xrotation Yrotation
            JOINT rHand
            {
              OFFSET -22.5879 0.773209 7.07136
              CHANNELS 3 Zrotation Xrotation Yrotation
              JOINT rThumb1
              {
                OFFSET -1.2192 -0.487915 3.41376
                CHANNELS 3 Zrotation Xrotation Yrotation
                JOINT rThumb2
                {
                  OFFSET -3.37035 -0.52449 3.41376
                  CHANNELS 3 Zrotation Xrotation Yrotation
                  End Site
                  {
                    OFFSET -1.78271 -1.18214 1.43049
                  }
                }
              }
              JOINT rIndex1
              {
                OFFSET -7.75947 0.938293 5.60832
                CHANNELS 3 Zrotation Xrotation Yrotation
                JOINT rIndex2
                {
                  OFFSET -2.54057 -0.884171 1.56538
                  CHANNELS 3 Zrotation Xrotation Yrotation
                  End Site
                  {
                    OFFSET -1.62519 -0.234802 1.16502
                  }
                }
              }
              JOINT rMid1
              {
                OFFSET -8.24714 1.18213 3.41376
                CHANNELS 3 Zrotation Xrotation Yrotation
                JOINT rMid2
                {
                  OFFSET -3.10165 -0.590103 1.0647
                  CHANNELS 3 Zrotation Xrotation Yrotation
                  End Site
                  {
                    OFFSET -2.48547 -0.328903 0.83742
                  }
                }
              }
              JOINT rRing1
              {
                OFFSET -8.82822 0.546677 1.51678
                CHANNELS 3 Zrotation Xrotation Yrotation
                JOINT rRing2
                {
                  OFFSET -2.60934 -0.819778 -0.0198488
                  CHANNELS 3 Zrotation Xrotation Yrotation
                  End Site
                  {
                    OFFSET -2.33842 -0.294052 0.168128
                  }
                }
              }
              JOINT rPinky1
              {
                OFFSET -8.27202 -0.0477905 -0.4584
                CHANNELS 3 Zrotation Xrotation Yrotation
                JOINT rPinky2
                {
                  OFFSET -1.82734 -0.647385 -0.700984
                  CHANNELS 3 Zrotation Xrotation Yrotation
                  End Site
                  {
                    OFFSET -1.69225 -0.51767 -0.607171
                  }
                }
              }
            }
          }
        }
      }
      JOINT lCollar
      {
        OFFSET 2.68224 19.2634 -4.8768
        CHANNELS 3 Zrotation Xrotation Yrotation
        JOINT lShldr
        {
          OFFSET 8.77824 -1.95073 1.46304
          CHANNELS 3 Zrotation Xrotation Yrotation
          JOINT lForeArm
          {
            OFFSET 28.1742 -1.7115 0.48768
            CHANNELS 3 Zrotation Xrotation Yrotation
            JOINT lHand
            {
              OFFSET 22.5879 0.773209 7.07136
              CHANNELS 3 Zrotation Xrotation Yrotation
              JOINT lThumb1
              {
                OFFSET 1.2192 -0.487915 3.41376
                CHANNELS 3 Zrotation Xrotation Yrotation
                JOINT lThumb2
                {
                  OFFSET 3.37035 -0.52449 3.41376
                  CHANNELS 3 Zrotation Xrotation Yrotation
                  End Site
                  {
                    OFFSET 1.78271 -1.18214 1.43049
                  }
                }
              }
              JOINT lIndex1
              {
                OFFSET 7.75947 0.938293 5.60832
                CHANNELS 3 Zrotation Xrotation Yrotation
                JOINT lIndex2
                {
                  OFFSET 2.54057 -0.884171 1.56538
                  CHANNELS 3 Zrotation Xrotation Yrotation
                  End Site
                  {
                    OFFSET 1.62519 -0.234802 1.16502
                  }
                }
              }
              JOINT lMid1
              {
                OFFSET 8.24714 1.18213 3.41376
                CHANNELS 3 Zrotation Xrotation Yrotation
                JOINT lMid2
                {
                  OFFSET 3.10165 -0.590103 1.0647
                  CHANNELS 3 Zrotation Xrotation Yrotation
                  End Site
                  {
                    OFFSET 2.48547 -0.328903 0.83742
                  }
                }
              }
              JOINT lRing1
              {
                OFFSET 8.82822 0.546677 1.51678
                CHANNELS 3 Zrotation Xrotation Yrotation
                JOINT lRing2
                {
                  OFFSET 2.60934 -0.819778 -0.0198488
                  CHANNELS 3 Zrotation Xrotation Yrotation
                  End Site
                  {
                    OFFSET 2.33842 -0.294052 0.168128
                  }
                }
              }
              JOINT lPinky1
              {
                OFFSET 8.27202 -0.0477905 -0.4584
                CHANNELS 3 Zrotation Xrotation Yrotation
                JOINT lPinky2
                {
                  OFFSET 1.82734 -0.647385 -0.700984
                  CHANNELS 3 Zrotation Xrotation Yrotation
                  End Site
                  {
                    OFFSET 1.69225 -0.51767 -0.607171
                  }
                }
              }
            }
          }
        }
      }
    }
  }
  JOINT rButtock
  {
    OFFSET -8.77824 4.35084 1.2192
    CHANNELS 3 Zrotation Xrotation Yrotation
    JOINT rThigh
    {
      OFFSET 0 -1.70687 -2.19456
      CHANNELS 3 Zrotation Xrotation Yrotation
      JOINT rShin
      {
        OFFSET 0 -36.8199 0.73152
        CHANNELS 3 Zrotation Xrotation Yrotation
        JOINT rFoot
        {
          OFFSET 0.73152 -45.1104 -5.12064
          CHANNELS 3 Zrotation Xrotation Yrotation
          End Site
          {
            OFFSET -1.1221 -3.69964 12.103
          }
        }
      }
    }
  }
  JOINT lButtock
  {
    OFFSET 8.77824 4.35084 1.2192
    CHANNELS 3 Zrotation Xrotation Yrotation
    JOINT lThigh
    {
      OFFSET 0 -1.70687 -2.19456
      CHANNELS 3 Zrotation Xrotation Yrotation
      JOINT lShin
      {
        OFFSET 0 -36.8199 0.73152
        CHANNELS 3 Zrotation Xrotation Yrotation
        JOINT lFoot
        {
          OFFSET -0.73152 -45.1104 -5.12064
          CHANNELS 3 Zrotation Xrotation Yrotation
          End Site
          {
            OFFSET 1.1221 -3.69964 12.103
          }
        }
      }
    }
  }
}
MOTION
Frames:	6
Frame Time:	0.00833333
7.23559 76.9652 30.447 -1.082 0.31 -6.9064 1.27533 11.2282 0.101662 2.52428 -2.41131 0.0820152 4.62982 -7.70045 1.55701 -9.00347 -1.48146 1.09022 -0.0 0.0 0.0 -0.0 0.0 0.0 -7.55674e-14 1.55328e-13 -1.38683e-14 17.9071 -8.02537 40.9881 -25.9859 -23.3939 56.6881 -0.00489582 1.99876 0.281022 5.60829e-11 -1.11631e-09 -9.52005e-10 9.7075e-11 -1.92971e-09 -1.64553e-09 5.60842e-11 -1.11632e-09 -9.5201e-10 7.73091 5.47488 0.417314 5.60871e-11 -1.11631e-09 -9.51996e-10 2.90554 0.965183 0.102902 5.60847e-11 -1.11631e-09 -9.52008e-10 10.2786 0.731801 0.0259123 5.60812e-11 -1.11631e-09 -9.52004e-10 2.22167 -0.733487 -0.20892 -7.56567e-14 1.55323e-13 -1.42162e-14 -34.627 -7.9882 -40.5354 26.0146 -23.4724 -56.8267 0.237546 13.7472 -1.97039 3.91132e-10 -7.11727e-11 1.2525e-10 6.75708e-10 -1.12546e-10 2.11918e-10 3.9113e-10 -7.11711e-11 1.25253e-10 -7.73091 5.47488 -0.417314 3.91136e-10 -7.11678e-11 1.25246e-10 -2.90554 0.965183 -0.102902 3.91125e-10 -7.1172e-11 1.25248e-10 -10.2786 0.731801 -0.0259123 3.91136e-10 -7.11724e-11 1.25239e-10 -2.22167 -0.733487 0.20892 -2.03217e-16 0.0 -3.88251e-19 -8.63064 -19.5743 -10.4418 -0.940549 59.1434 1.72201 -9.0255 -19.4185 -18.5386 2.03217e-16 0.0 3.88251e-19 11.8266 -18.3436 12.1174 0.80403 56.4811 -1.48211 6.97833 -18.6572 15.3184
7.23886 76.9651 30.4536 -1.0644 0.3172 -6.9098 1.25504 11.2233 0.100997 2.52868 -2.40726 0.0819022 4.63654 -7.66896 1.56436 -9.03274 -1.48859 1.10297 -0.0 0.0 0.0 -0.0 0.0 0.0 -8.55034e-14 7.80286e-14 -3.50707e-15 17.8968 -8.0415 40.9697 -25.9845 -23.3913 56.6873 -0.00510986 2.0414 0.287022 5.11862e-10 -6.35792e-10 -9.06174e-10 8.85453e-10 -1.10182e-09 -1.56873e-09 5.11861e-10 -6.35795e-10 -9.0618e-10 7.73091 5.47488 0.417314 5.11865e-10 -6.35785e-10 -9.06168e-10 2.90554 0.965183 0.102902 5.11863e-10 -6.35793e-10 -9.06176e-10 10.2786 0.731801 0.0259123 5.11857e-10 -6.3579e-10 -9.0617e-10 2.22167 -0.733487 -0.20892 -8.55556e-14 7.80231e-14 -3.85728e-15 -34.6324 -7.9948 -40.527 26.0171 -23.4786 -56.8366 0.236707 13.7235 -1.96685 2.13499e-11 5.02245e-10 -1.11374e-10 3.34356e-11 8.67202e-10 -1.91022e-10 2.13458e-11 5.02245e-10 -1.11372e-10 -7.73091 5.47488 -0.417314 2.13514e-11 5.02246e-10 -1.11376e-10 -2.90554 0.965183 -0.102902 2.13415e-11 5.02245e-10 -1.11377e-10 -10.2786 0.731801 -0.0259123 2.1354e-11 5.02247e-10 -1.11384e-10 -2.22167 -0.733487 0.20892 -2.03217e-16 0.0 -3.88251e-19 -8.65224 -19.5669 -10.4381 -0.941044 59.1496 1.72382 -9.02569 -19.4212 -18.5385 2.03217e-16 0.0 3.88251e-19 11.7998 -18.334 12.1087 0.803557 56.4779 -1.48137 6.98108 -18.6543 15.3251
7.24218 76.965 30.4595 -1.0456 0.3221 -6.9125 1.23518 11.2168 0.101233 2.53356 -2.40221 0.0818233 4.64822 -7.62926 1.57323 -9.07124 -1.50425 1.11678 -0.0 0.0 0.0 -0.0 0.0 0.0 -8.72592e-14 1.99056e-15 5.06901e-15 17.8884 -8.06111 40.9546 -25.9831 -23.3892 56.6868 -0.00523575 2.06559 0.290427 8.65124e-10 -9.40092e-11 -7.31766e-10 1.49635e-09 -1.67358e-10 -1.26906e-09 8.6512e-10 -9.4012e-11 -7.31772e-10 7.73091 5.47488 0.417314 8.65125e-10 -9.39986e-11 -7.31763e-10 2.90554 0.965183 0.102902 8.65125e-10 -9.40098e-11 -7.31767e-10 10.2786 0.731801 0.0259123 8.65116e-10 -9.40069e-11 -7.3176e-10 2.22167 -0.733487 -0.20892 -8.72794e-14 1.98474e-15 4.72114e-15 -34.64 -8.00493 -40.5198 26.0197 -23.4852 -56.8473 0.236166 13.7082 -1.96457 -2.54537e-10 1.03733e-09 -3.67278e-10 -4.46248e-10 1.78351e-09 -6.28874e-10 -2.54542e-10 1.03733e-09 -3.67275e-10 -7.73091 5.47488 -0.417314 -2.54537e-10 1.03733e-09 -3.67278e-10 -2.90554 0.965183 -0.102902 -2.54545e-10 1.03733e-09 -3.67281e-10 -10.2786 0.731801 -0.0259123 -2.54532e-10 1.03733e-09 -3.67287e-10 -2.22167 -0.733487 0.20892 -2.03217e-16 0.0 -3.88251e-19 -8.67322 -19.5637 -10.4355 -0.941404 59.1581 1.72538 -9.0263 -19.4226 -18.5394 2.03217e-16 0.0 3.88251e-19 11.7765 -18.3269 12.104 0.803331 56.4756 -1.48097 6.98249 -18.6532 15.3285
7.24542 76.9648 30.4648 -1.0259 0.3249 -6.9125 1.21397 11.2066 0.102402 2.5399 -2.39456 0.0817956 4.66837 -7.57196 1.58417 -9.12334 -1.53562 1.13151 -0.0 0.0 0.0 -0.0 0.0 0.0 -7.69943e-14 -8.54093e-14 1.20513e-14 17.8819 -8.086 40.944 -25.9818 -23.3871 56.6864 -0.00521426 2.06125 0.289816 1.12073e-09 6.48204e-10 -3.15783e-10 1.93801e-09 1.11429e-09 -5.51142e-10 1.12072e-09 6.48202e-10 -3.15787e-10 7.73091 5.47488 0.417314 1.12073e-09 6.48215e-10 -3.15781e-10 2.90554 0.965183 0.102902 1.12073e-09 6.48205e-10 -3.15781e-10 10.2786 0.731801 0.0259123 1.12072e-09 6.48207e-10 -3.15771e-10 2.22167 -0.733487 -0.20892 -7.69865e-14 -8.54154e-14 1.17194e-14 -34.6507 -8.01973 -40.5147 26.0225 -23.4925 -56.859 0.23602 13.7041 -1.96395 -4.18793e-10 1.62158e-09 -7.10748e-10 -7.33098e-10 2.78802e-09 -1.21996e-09 -4.18798e-10 1.62157e-09 -7.10742e-10 -7.73091 5.47488 -0.417314 -4.18793e-10 1.62157e-09 -7.10747e-10 -2.90554 0.965183 -0.102902 -4.18801e-10 1.62158e-09 -7.10751e-10 -10.2786 0.731801 -0.0259123 -4.18789e-10 1.62158e-09 -7.10757e-10 -2.22167 -0.733487 0.20892 -2.03217e-16 0.0 -3.88251e-19 -8.6956 -19.5662 -10.435 -0.941408 59.1698 1.72651 -9.02736 -19.4227 -18.5415 2.03217e-16 0.0 3.88251e-19 11.7555 -18.3229 12.1043 0.803232 56.4741 -1.48078 6.98221 -18.6543 15.328
7.24847 76.9644 30.4692 -1.0072 0.326 -6.9109 1.19053 11.1941 0.104459 2.54756 -2.38531 0.0818778 4.6958 -7.50129 1.59744 -9.18729 -1.57948 1.14797 -0.0 0.0 0.0 -0.0 0.0 0.0 -5.83992e-14 -1.86283e-13 1.85677e-14 17.8767 -8.11515 40.9369 -25.9803 -23.3847 56.6859 -0.0051034 2.03944 0.286746 1.33759e-09 1.55706e-09 2.76036e-10 2.31247e-09 2.68431e-09 4.71044e-10 1.33758e-09 1.55706e-09 2.76035e-10 7.73091 5.47488 0.417314 1.33758e-09 1.55707e-09 2.76037e-10 2.90554 0.965183 0.102902 1.33759e-09 1.55706e-09 2.76041e-10 10.2786 0.731801 0.0259123 1.33758e-09 1.55706e-09 2.76054e-10 2.22167 -0.733487 -0.20892 -5.83657e-14 -1.86289e-13 1.82602e-14 -34.6631 -8.03789 -40.5103 26.0259 -23.5015 -56.8735 0.236036 13.7045 -1.96402 -5.39708e-10 2.25985e-09 -1.12404e-09 -9.45271e-10 3.88719e-09 -1.93254e-09 -5.39711e-10 2.25985e-09 -1.12403e-09 -7.73091 5.47488 -0.417314 -5.39708e-10 2.25985e-09 -1.12404e-09 -2.90554 0.965183 -0.102902 -5.39714e-10 2.25986e-09 -1.12404e-09 -10.2786 0.731801 -0.0259123 -5.39704e-10 2.25986e-09 -1.12404e-09 -2.22167 -0.733487 0.20892 -2.03217e-16 0.0 -3.88251e-19 -8.72044 -19.5731 -10.436 -0.941196 59.1844 1.72748 -9.02854 -19.422 -18.5439 2.03217e-16 0.0 3.88251e-19 11.7354 -18.3211 12.1084 0.803247 56.473 -1.48076 6.98066 -18.6569 15.3244
7.25137 76.9641 30.473 -0.989 0.3262 -6.9074 1.16948 11.1827 0.10737 2.55444 -2.37725 0.0819878 4.72346 -7.43517 1.61161 -9.25458 -1.6221 1.16588 -0.0 0.0 0.0 -0.0 0.0 0.0 -3.73472e-14 -2.70645e-13 2.33417e-14 17.8733 -8.14529 40.9312 -25.9791 -23.3831 56.6861 -0.00497961 2.01459 0.28325 1.46059e-09 2.34476e-09 8.38745e-10 2.52464e-09 4.04543e-09 1.44336e-09 1.46058e-09 2.34476e-09 8.38748e-10 7.73091 5.47488 0.417314 1.46058e-09 2.34477e-09 8.38747e-10 2.90554 0.965183 0.102902 1.46059e-09 2.34477e-09 8.38753e-10 10.2786 0.731801 0.0259123 1.46058e-09 2.34477e-09 8.3877e-10 2.22167 -0.733487 -0.20892 -3.72942e-14 -2.70652e-13 2.30509e-14 -34.676 -8.05784 -40.5059 26.0296 -23.5111 -56.889 0.236163 13.7082 -1.96456 -6.05968e-10 2.75164e-09 -1.46681e-09 -1.0622e-09 4.73495e-09 -2.52419e-09 -6.0597e-10 2.75164e-09 -1.4668e-09 -7.73091 5.47488 -0.417314 -6.05966e-10 2.75164e-09 -1.46681e-09 -2.90554 0.965183 -0.102902 -6.05972e-10 2.75165e-09 -1.46681e-09 -10.2786 0.731801 -0.0259123 -6.05965e-10 2.75165e-09 -1.46682e-09 -2.22167 -0.733487 0.20892 -2.03217e-16 0.0 -3.88251e-19 -8.74245 -19.5822 -10.4366 -0.941167 59.1998 1.72855 -9.03 -19.4206 -18.5469 2.03217e-16 0.0 3.88251e-19 11.7195 -18.3207 12.1152 0.803656 56.4734 -1.48126 6.9783 -18.6606 15.3189
